<?xml version="1.0" encoding="UTF-8" standalone="no"?>
<!-- Created with Inkscape (http://www.inkscape.org/) -->

<svg
   xmlns:dc="http://purl.org/dc/elements/1.1/"
   xmlns:cc="http://creativecommons.org/ns#"
   xmlns:rdf="http://www.w3.org/1999/02/22-rdf-syntax-ns#"
   xmlns:svg="http://www.w3.org/2000/svg"
   xmlns="http://www.w3.org/2000/svg"
   xmlns:sodipodi="http://sodipodi.sourceforge.net/DTD/sodipodi-0.dtd"
   xmlns:inkscape="http://www.inkscape.org/namespaces/inkscape"
   width="210mm"
   height="297mm"
   viewBox="0 0 210 297"
   version="1.1"
   id="svg8"
   inkscape:version="0.92.2 (5c3e80d, 2017-08-06)"
   sodipodi:docname="urparty7.svg">
  <defs
     id="defs2" />
  <sodipodi:namedview
     id="base"
     pagecolor="#ffffff"
     bordercolor="#666666"
     borderopacity="1.0"
     inkscape:pageopacity="0.0"
     inkscape:pageshadow="2"
     inkscape:zoom="0.98994949"
     inkscape:cx="165.75883"
     inkscape:cy="923.67547"
     inkscape:document-units="mm"
     inkscape:current-layer="layer1"
     showgrid="false"
     inkscape:window-width="1920"
     inkscape:window-height="1017"
     inkscape:window-x="-8"
     inkscape:window-y="-8"
     inkscape:window-maximized="1" />
  <metadata
     id="metadata5">
    <rdf:RDF>
      <cc:Work
         rdf:about="">
        <dc:format>image/svg+xml</dc:format>
        <dc:type
           rdf:resource="http://purl.org/dc/dcmitype/StillImage" />
        <dc:title></dc:title>
      </cc:Work>
    </rdf:RDF>
  </metadata>
  <g
     inkscape:label="Ebene 1"
     inkscape:groupmode="layer"
     id="layer1">
    <rect
       style="opacity:1;fill:#ffffff;fill-opacity:1;fill-rule:nonzero;stroke:none;stroke-width:2.04699993;stroke-linecap:butt;stroke-linejoin:miter;stroke-miterlimit:4;stroke-dasharray:none;stroke-dashoffset:0;stroke-opacity:1;paint-order:markers fill stroke"
       id="rect1397"
       width="41.683186"
       height="10.004417"
       x="116.91134"
       y="32.807995" />
    <rect
       style="opacity:1;fill:#ffffff;fill-opacity:1;fill-rule:nonzero;stroke:none;stroke-width:2.70914435;stroke-linecap:butt;stroke-linejoin:miter;stroke-miterlimit:4;stroke-dasharray:none;stroke-dashoffset:0;stroke-opacity:1;paint-order:markers fill stroke"
       id="rect1186"
       width="32.563267"
       height="54.882381"
       x="126.03339"
       y="32.807995" />
    <path
       inkscape:connector-curvature="0"
       style="opacity:1;fill:#ffffff;fill-opacity:1;fill-rule:nonzero;stroke:none;stroke-width:2.0092392;stroke-linecap:butt;stroke-linejoin:miter;stroke-miterlimit:4;stroke-dasharray:none;stroke-dashoffset:0;stroke-opacity:1;paint-order:markers fill stroke"
       d="m 51.558105,32.807492 v 7.883239 0.256315 l 14.097849,-8.139554 h -0.443902 z m 32.675009,0 V 64.50323 a 9.2876774,7.4866507 0 0 1 -9.287806,7.486883 9.2876774,7.4866507 0 0 1 -8.789128,-5.09633 L 53.720764,74.073707 A 23.386082,23.386082 0 0 0 74.945308,87.699748 23.386082,23.386082 0 0 0 98.330961,64.313577 V 32.807492 Z m -18.57716,6.875033 -14.097849,8.139555 v 6.063712 0.291971 0.519348 l 14.097849,-8.139554 v -0.811321 z m 0,13.750063 -14.097849,8.139557 v 2.741432 h 0.0011 a 23.386082,23.386082 0 0 0 0.3576,3.926377 L 65.65602,60.307621 v -6.129858 z"
       id="rect827" />
    <path
       inkscape:connector-curvature="0"
       style="opacity:1;fill:#ff2a7f;fill-opacity:1;fill-rule:nonzero;stroke:none;stroke-width:2.08562469;stroke-linecap:butt;stroke-linejoin:miter;stroke-miterlimit:4;stroke-dasharray:none;stroke-dashoffset:0;stroke-opacity:1;paint-order:markers fill stroke"
       d="m 98.330566,32.807585 v 5.59604 1.456243 21.197153 26.63352 h 14.097854 v -19.57297 l 11.30008,19.57297 h 16.27549 l -12.93616,-22.40639 a 17.793228,17.793228 0 0 0 7.74319,-14.68334 17.793228,17.793228 0 0 0 -17.77979,-17.792709 v -5.3e-4 h -0.0134 -4.58938 -0.003 z m 18.580774,11.122319 a 6.6711006,6.6711006 0 0 1 6.67091,6.670907 6.6711006,6.6711006 0 0 1 -6.67091,6.67091 6.6711006,6.6711006 0 0 1 -0.017,-5.3e-4 h -3.40759 V 43.930419 h 3.4003 a 6.6711006,6.6711006 0 0 1 0.0243,-5.29e-4 z"
       id="rect854" />
    <path
       style="opacity:1;fill:#ab37c8;fill-opacity:1;fill-rule:nonzero;stroke:none;stroke-width:1.27021241;stroke-linecap:butt;stroke-linejoin:miter;stroke-miterlimit:4;stroke-dasharray:none;stroke-dashoffset:0;stroke-opacity:1;paint-order:markers fill stroke"
       d="m 140.00606,42.524529 v 5.400692 4.77594 5.4007 h 4.77594 v -5.4007 h 13.81466 v -4.77594 H 144.782 v -5.400692 z"
       id="rect970"
       inkscape:connector-curvature="0" />
    <path
       style="opacity:1;fill:#00aad4;fill-opacity:1;fill-rule:nonzero;stroke:none;stroke-width:0.69345903;stroke-linecap:butt;stroke-linejoin:miter;stroke-miterlimit:4;stroke-dasharray:none;stroke-dashoffset:0;stroke-opacity:1;paint-order:markers fill stroke"
       d="m 158.59666,52.534301 -7.35408,4.24625 a 6.0277872,6.0277845 0 0 0 -5.21053,-3.00912 6.0277872,6.0277845 0 0 0 -6.02754,6.02289 h -5.2e-4 v 0.005 1.55442 10e-4 4.7749 h 1.89601 0.49299 7.18096 9.02271 v -4.77594 h -5.72575 l 5.72575,-3.30574 z m -12.56461,5.04103 a 2.2599596,2.2599587 0 0 1 2.25981,2.25981 2.2599596,2.2599587 0 0 1 -5.2e-4,0.006 v 1.15446 h -4.5191 v -1.15239 a 2.2599596,2.2599587 0 0 1 0,-0.008 v -5.2e-4 a 2.2599596,2.2599587 0 0 1 2.25981,-2.25981 z"
       id="rect886-9"
       inkscape:connector-curvature="0" />
    <path
       style="opacity:1;fill:#00ff66;fill-opacity:1;fill-rule:nonzero;stroke:none;stroke-width:1.26294303;stroke-linecap:butt;stroke-linejoin:miter;stroke-miterlimit:4;stroke-dasharray:none;stroke-dashoffset:0;stroke-opacity:1;paint-order:markers fill stroke"
       d="m 158.59666,65.006211 -18.59163,5.03897 v 4.61005 h 0.0284 l 18.56321,5.03174 v -4.94131 l -8.85218,-2.39933 8.85218,-2.39934 z"
       id="rect921"
       inkscape:connector-curvature="0" />
    <path
       style="opacity:1;fill:#ffcc00;fill-opacity:1;fill-rule:nonzero;stroke:none;stroke-width:0.70654404;stroke-linecap:butt;stroke-linejoin:miter;stroke-miterlimit:4;stroke-dasharray:none;stroke-dashoffset:0;stroke-opacity:1;paint-order:markers fill stroke"
       d="m 146.03205,75.332141 a 6.0277872,6.0277845 0 0 0 -6.02754,6.0234 h -5.2e-4 v 0.004 1.55494 0.001 4.7749 h 1.89601 0.49351 7.18096 9.02219 v -4.77593 h -6.53707 v -1.55443 -0.0398 h -0.002 a 6.0277872,6.0277845 0 0 0 -6.02547,-5.98826 z m 0,3.8039 a 2.2599596,2.2599586 0 0 1 2.25981,2.25981 2.2599596,2.2599586 0 0 1 -5.2e-4,0.006 v 1.15445 h -4.5191 v -1.15187 a 2.2599596,2.2599586 0 0 1 0,-0.009 2.2599596,2.2599586 0 0 1 0,-5.2e-4 2.2599596,2.2599586 0 0 1 2.25981,-2.25929 z"
       id="rect854-2"
       inkscape:connector-curvature="0" />
    <path
       style="opacity:1;fill:#ff2a7f;fill-opacity:1;fill-rule:nonzero;stroke:none;stroke-width:1.21710098;stroke-linecap:butt;stroke-linejoin:miter;stroke-miterlimit:4;stroke-dasharray:none;stroke-dashoffset:0;stroke-opacity:1;paint-order:markers fill stroke"
       d="m 140.00813,32.807997 v 5.514908 l 3.63957,2.101681 -3.63957,2.101165 v 5.51491 l 9.05577,-5.228107 h 9.53276 v -4.775936 h -9.53276 z"
       id="rect970-1"
       inkscape:connector-curvature="0" />
    <rect
       style="opacity:1;fill:#ff00ff;fill-opacity:0;fill-rule:nonzero;stroke:none;stroke-width:2.04699993;stroke-linecap:butt;stroke-linejoin:miter;stroke-miterlimit:4;stroke-dasharray:none;stroke-dashoffset:0;stroke-opacity:1;paint-order:markers fill stroke"
       id="rect855"
       width="15.698361"
       height="11.111369"
       x="82.632202"
       y="76.57917" />
    <path
       style="opacity:1;fill:#ff2a2a;fill-opacity:1;fill-rule:nonzero;stroke:none;stroke-width:0.40128851;stroke-linecap:butt;stroke-linejoin:miter;stroke-miterlimit:4;stroke-dasharray:none;stroke-dashoffset:0;stroke-opacity:1;paint-order:markers fill stroke"
       d="m 133.06956,91.325311 a 2.6453407,2.6764575 0 0 0 -1.26805,-0.32754 2.6453407,2.6764575 0 0 0 -0.0671,0.002 l 1.3e-4,-0.002 -0.45817,-1.8e-4 -2.71272,1.6e-4 3e-5,0.52393 -1.7e-4,4.60053 -8e-5,4.078449 10e-5,0.27991 -5e-5,1.07703 2.71202,2e-5 7.1e-4,-1.9e-4 0.88326,-2.3e-4 0.002,1.9e-4 a 3.4235382,3.4235398 0 0 0 3.42106,-3.423279 3.4235382,3.4235398 0 0 0 -1.62775,-2.90951 2.6453407,2.6764575 0 0 0 0.49174,-1.55037 2.6453407,2.6764575 0 0 0 -1.37731,-2.34903 z m -0.83438,1.45459 a 0.99180064,1.003467 0 0 1 0.54226,0.89427 0.99180064,1.003467 0 0 1 -0.99164,1.00339 l -2.5e-4,4.4e-4 a 0.99180064,1.003467 0 0 1 -0.005,-3.2e-4 l -0.5047,-2e-4 2.8e-4,-2.00656 0.5054,10e-6 a 0.99180064,1.003467 0 0 1 0.004,-1.8e-4 0.99180064,1.003467 0 0 1 0.44955,0.10917 z m 0.59707,4.27405 a 1.2835653,1.2835658 0 0 1 0.59014,1.08004 1.2835653,1.2835658 0 0 1 -1.28349,1.2836 l -7.1e-4,1.9e-4 a 1.2835653,1.2835658 0 0 1 -0.005,-3.2e-4 l -0.65405,1.1e-4 -1e-4,-2.56711 0.65564,2.4e-4 a 1.2835653,1.2835658 0 0 1 0.004,-1.8e-4 1.2835653,1.2835658 0 0 1 0.69346,0.20345 z"
       id="rect854-2-7"
       inkscape:connector-curvature="0" />
    <path
       style="opacity:1;fill:#ff2a2a;fill-opacity:1;fill-rule:nonzero;stroke:none;stroke-width:0.72142935;stroke-linecap:butt;stroke-linejoin:miter;stroke-miterlimit:4;stroke-dasharray:none;stroke-dashoffset:0;stroke-opacity:1;paint-order:markers fill stroke"
       d="m 150.71529,90.997891 -2.69164,-1.9e-4 -2.71273,1.6e-4 -2.69164,-1.8e-4 1e-4,2.48236 2.69164,1.8e-4 -1.9e-4,8.076339 2.71273,-1.7e-4 1.9e-4,-8.076319 2.69119,-8e-5 z"
       id="rect970-17"
       inkscape:connector-curvature="0" />
    <path
       style="opacity:1;fill:#ff2a2a;fill-opacity:1;fill-rule:nonzero;stroke:none;stroke-width:0.72142935;stroke-linecap:butt;stroke-linejoin:miter;stroke-miterlimit:4;stroke-dasharray:none;stroke-dashoffset:0;stroke-opacity:1;paint-order:markers fill stroke"
       d="m 141.68833,90.997821 -2.69164,-1.9e-4 -2.32308,1.7e-4 -0.38965,-10e-6 -9e-5,10.558699 5.9174,2.6e-4 3.5e-4,-2.482109 -3.20538,-2.3e-4 3.3e-4,-1.58705 1.99407,2.3e-4 -1e-4,-2.48236 -1.99432,2.1e-4 1.2e-4,-1.5257 2.69164,1.9e-4 z"
       id="rect970-17-4"
       inkscape:connector-curvature="0" />
    <path
       style="opacity:1;fill:#ff2a2a;fill-opacity:1;fill-rule:nonzero;stroke:none;stroke-width:0.71730065;stroke-linecap:butt;stroke-linejoin:miter;stroke-miterlimit:4;stroke-dasharray:none;stroke-dashoffset:0;stroke-opacity:1;paint-order:markers fill stroke"
       d="m 155.73429,90.997651 -2.61825,-1.8e-4 -7e-5,0.0167 -2.86217,10.559159 2.80625,1.3e-4 1.36728,-5.044019 1.36308,5.027779 2.80625,1.2e-4 z"
       id="rect921-8"
       inkscape:connector-curvature="0" />
  </g>
</svg>
